# xmcd CD database file generated by OrangeCD 4.2
#
# Track frame offsets:
#	150
#	15313
#	39674
#	52870
#	67431
#	80249
#	93956
#	109681
#	124658
#	139674
#	154747
#	173479
#	189868
#	206298
#
# Disc length: 2963 seconds
#
# Revision: 0
# Processed by: cddbd v1.5PL3 Copyright (c) Steve Scherf et al.
# Submitted via: OrangeCD 4.2
#
DISCID=b00b910e
DTITLE=Alabama - The Very Best Of Alabama
DYEAR=1900
DGENRE=Country
TTITLE0=When It All Goes South
TTITLE1=Dixieland Delight
TTITLE2=She ain't your ordinary girl
TTITLE3=Song Of The South
TTITLE4=I'm In A Hurry
TTITLE5=High Cotton
TTITLE6=Down Home
TTITLE7=Born Country
TTITLE8=40 Hour Week
TTITLE9=Love In The First Degree
TTITLE10=Angels Among Us
TTITLE11=When We Make Love
TTITLE12=Feels so right
TTITLE13=Forever's as far as i'll go
EXTD=
EXTT0=
EXTT1=
EXTT2=
EXTT3=
EXTT4=
EXTT5=
EXTT6=
EXTT7=
EXTT8=
EXTT9=
EXTT10=
EXTT11=
EXTT12=
EXTT13=
PLAYORDER=
